<svg width="200" height="60" viewBox="0 0 200 60" xmlns="http://www.w3.org/2000/svg">
  <defs>
    <linearGradient id="logoGradient" x1="0%" y1="0%" x2="100%" y2="100%">
      <stop offset="0%" style="stop-color:#f59e0b;stop-opacity:1" />
      <stop offset="100%" style="stop-color:#f97316;stop-opacity:1" />
    </linearGradient>
  </defs>
  
  <!-- Paw shape -->
  <path d="M30 15 C30 10, 35 8, 38 10 C40 8, 45 8, 45 12 C47 10, 52 10, 52 15 C52 20, 48 25, 45 25 C42 25, 40 22, 40 20 C40 22, 38 25, 35 25 C32 25, 30 20, 30 15 Z" fill="url(#logoGradient)"/>
  
  <!-- Paw pads -->
  <circle cx="35" cy="18" r="2" fill="#d97706"/>
  <circle cx="40" cy="16" r="2" fill="#d97706"/>
  <circle cx="45" cy="18" r="2" fill="#d97706"/>
  <circle cx="40" cy="22" r="3" fill="#d97706"/>
  
  <!-- Text -->
  <text x="65" y="25" font-family="Arial, sans-serif" font-size="24" font-weight="bold" fill="#f59e0b">Pawzzle</text>
  <text x="65" y="42" font-family="Arial, sans-serif" font-size="8" fill="#92400e">Where Pets Find Their Match</text>
</svg>
